<svg width="116" height="138" viewBox="0 0 116 138" fill="none" xmlns="http://www.w3.org/2000/svg">
<path d="M13.7495 108.903C13.6553 108.903 13.5651 108.866 13.4985 108.799C13.4319 108.733 13.3945 108.643 13.3945 108.548V102.585C13.3945 102.491 13.4319 102.401 13.4985 102.334C13.5651 102.268 13.6553 102.23 13.7495 102.23C13.8436 102.23 13.9339 102.268 14.0005 102.334C14.067 102.401 14.1044 102.491 14.1044 102.585V108.548C14.1044 108.643 14.067 108.733 14.0005 108.799C13.9339 108.866 13.8436 108.903 13.7495 108.903Z" fill="#212529"/>
<path d="M29.3313 57.9694C21.0966 60.8977 19.3574 45.2625 26.9709 47.8003C34.5844 50.3382 31.3544 36.6729 31.3544 36.6729C22.6939 7.08856 49.2967 1.44499 49.2967 1.44499C49.2967 1.44499 52.1185 -0.294225 56.0229 5.10088C56.0229 5.10088 64.3107 1.53372 70.0785 12.182C75.8463 22.8302 69.2089 39.3705 72.2259 44.2154C75.4914 49.4153 78.6149 43.7717 80.5493 48.5102C82.182 52.5033 74.2136 57.0288 72.2259 57.0821L29.3313 57.9694Z" fill="#212529"/>
<path d="M27.3265 58.6965C25.2501 58.6965 23.9546 57.4542 23.2802 56.5669C21.5055 54.2065 21.2215 50.5329 22.659 48.5452C23.6174 47.2142 25.1791 46.8237 27.0781 47.4626C28.4978 47.924 29.5982 47.8353 30.3435 47.1432C32.8281 44.8715 31.0712 37.0628 31.0002 36.7611C28.2494 27.302 28.764 19.2803 32.5619 12.9268C37.9748 3.87582 48.3391 1.3025 49.1732 1.10728C49.6168 0.876567 52.4386 -0.312485 56.1478 4.67444C57.6932 4.17383 59.3352 4.04612 60.9395 4.30175C63.5838 4.70993 67.3462 6.37816 70.3987 12.004C73.8061 18.3042 72.9365 26.6453 72.2444 33.336C71.7474 38.0389 71.3393 42.103 72.5283 44.0197C74.0901 46.522 75.5631 46.3446 76.9651 46.1671C78.3671 45.9896 79.8401 45.8299 80.8872 48.3855C81.3486 49.5213 81.1534 50.7636 80.3015 52.0769C78.4381 54.9341 73.8239 57.401 72.2444 57.4365L29.4029 58.3238C28.7368 58.5642 28.0347 58.6902 27.3265 58.6965ZM25.4098 47.8708C24.9868 47.8534 24.5663 47.9435 24.1877 48.1329C23.809 48.3222 23.4846 48.6045 23.2447 48.9534C22.0024 50.6926 22.2864 54.0468 23.8481 56.1409C24.6112 57.1348 26.3149 58.6788 29.2255 57.6317H29.3319L72.2266 56.7443C73.4689 56.7088 77.8879 54.5082 79.6981 51.7219C80.4258 50.6038 80.6032 49.5923 80.2305 48.6694C79.3964 46.6285 78.4026 46.735 77.0538 46.8947C75.705 47.0544 73.7174 47.2852 71.9249 44.4101C70.5939 42.2982 71.0376 38.1277 71.5345 33.2827C72.2266 26.6808 73.0785 18.4639 69.7775 12.3589C67.4704 8.11737 64.3824 5.57954 60.833 5.01163C58.1709 4.60345 56.1833 5.43756 56.1655 5.45531L55.8993 5.56179L55.7396 5.33108C52.0659 0.255421 49.5104 1.74617 49.4926 1.76392L49.4394 1.79942H49.3861C49.2797 1.83491 38.6137 4.19527 33.1653 13.3173C29.4739 19.4932 28.977 27.3374 31.6923 36.6014C31.781 36.9386 33.6622 45.0845 30.8227 47.6756C29.8821 48.5452 28.5333 48.6872 26.8474 48.137C26.3863 47.9691 25.9005 47.8791 25.4098 47.8708Z" fill="#212529"/>
<path d="M66.3169 21.6768H66.2104C56.5027 18.9083 49.5104 10.5671 49.4394 10.4784C49.3782 10.4055 49.3485 10.3112 49.3568 10.2163C49.3652 10.1215 49.4108 10.0338 49.4838 9.97262C49.5567 9.91143 49.651 9.88173 49.7459 9.89005C49.8407 9.89837 49.9284 9.94403 49.9896 10.017C50.0606 10.1057 56.9109 18.2871 66.4056 20.9847C66.4514 20.9969 66.4943 21.0183 66.5317 21.0473C66.5691 21.0764 66.6003 21.1127 66.6234 21.1541C66.6466 21.1954 66.6612 21.241 66.6665 21.2881C66.6718 21.3352 66.6675 21.3829 66.6541 21.4283C66.6341 21.5017 66.5899 21.5662 66.5287 21.6113C66.4675 21.6564 66.3929 21.6795 66.3169 21.6768Z" fill="#212529"/>
<path d="M62.3056 32.643H62.2169C62.1702 32.6386 62.1248 32.6249 62.0834 32.6028C62.0421 32.5808 62.0054 32.5507 61.9757 32.5144C61.946 32.4781 61.9238 32.4363 61.9104 32.3913C61.8969 32.3464 61.8925 32.2992 61.8975 32.2526C61.8996 32.2066 61.9111 32.1616 61.9313 32.1203C61.9515 32.079 61.9799 32.0423 62.0148 32.0124C62.0497 31.9825 62.0904 31.96 62.1343 31.9464C62.1782 31.9327 62.2244 31.9282 62.2701 31.9331C62.3944 31.9331 65.3581 32.1106 65.8905 27.2656C66.1922 24.6036 65.4469 23.805 64.737 23.0418C64.0271 22.2787 63.3527 21.5688 63.5479 19.5634C63.5573 19.4693 63.6038 19.3827 63.677 19.3228C63.7502 19.2629 63.8442 19.2345 63.9384 19.244C64.0325 19.2534 64.119 19.2998 64.1789 19.373C64.2388 19.4462 64.2672 19.5403 64.2578 19.6344C64.0981 21.3204 64.6305 21.8883 65.2516 22.5627C65.8728 23.2371 66.9199 24.3551 66.6004 27.3544C66.0325 32.3945 62.8913 32.643 62.3056 32.643Z" fill="#212529"/>
<path d="M58.0463 22.1208H57.9931L53.9645 21.7658C53.8452 21.7524 53.7358 21.693 53.6596 21.6002C53.5833 21.5074 53.5463 21.3886 53.5563 21.2689C53.5606 21.2113 53.5767 21.1551 53.6034 21.1038C53.6302 21.0525 53.6671 21.0073 53.712 20.9707C53.7568 20.9342 53.8086 20.9072 53.8642 20.8913C53.9198 20.8755 53.9781 20.8711 54.0355 20.8785L58.0818 21.2334C58.1401 21.2379 58.197 21.2539 58.2491 21.2804C58.3013 21.307 58.3476 21.3436 58.3856 21.3881C58.4235 21.4326 58.4523 21.4842 58.4702 21.5399C58.4881 21.5956 58.4948 21.6543 58.49 21.7126C58.4739 21.8212 58.4211 21.9209 58.3404 21.9952C58.2596 22.0695 58.1558 22.1138 58.0463 22.1208Z" fill="#212529"/>
<path d="M73.9476 108.548C72.9005 106.72 72.3148 105.975 72.5456 103.881C72.8828 100.668 73.3974 95.5394 73.6459 90.7122C76.0772 95.5394 81.8983 103.756 91.7124 98.6096C93.7178 97.5626 91.4817 65.4936 64.4706 54.8809L61.5069 59.0869C61.0312 59.8346 60.4715 60.5253 59.8386 61.1456C48.587 71.7938 39.607 54.8809 39.607 54.8809C12.0458 63.1332 14.4949 86.0802 11.9748 98.6096C10.6615 105.158 18.8962 102.443 26.8291 101.875C30.2543 101.644 30.8754 96.267 30.9287 92.0432C30.9263 91.982 30.9484 91.9224 30.99 91.8775C31.0316 91.8326 31.0893 91.806 31.1505 91.8036C31.2117 91.8013 31.2713 91.8233 31.3163 91.8649C31.3612 91.9065 31.3877 91.9643 31.3901 92.0255L32.3307 101.502C32.6005 104.271 32.0967 107.06 30.8754 109.56" fill="#ADB5BD"/>
<path d="M39.6074 54.8806C39.6074 54.8806 44.7896 57.4007 47.2742 42.4932L55.0651 41.9785C55.0651 41.9785 55.5443 56.3714 64.4711 54.8806C64.4711 54.8806 53.2194 77.5259 39.6074 54.8806Z" fill="#F8F9FA"/>
<path d="M70.6116 20.8249C70.5233 20.8254 70.438 20.7929 70.3724 20.7338C70.3067 20.6748 70.2655 20.5934 70.2566 20.5055C69.1563 9.875 60.2828 7.1597 60.1941 7.14195C60.1048 7.11341 60.0305 7.05076 59.9873 6.96765C59.9441 6.88454 59.9355 6.78771 59.9633 6.69828C59.9736 6.65317 59.9929 6.61065 60.0203 6.57335C60.0476 6.53606 60.0824 6.50478 60.1223 6.48148C60.1623 6.45818 60.2066 6.44334 60.2525 6.43789C60.2984 6.43245 60.345 6.43651 60.3893 6.44982C60.4958 6.48531 62.7851 7.17745 65.252 9.23611C67.7188 11.2948 70.3631 14.6312 70.9665 20.4345C70.9714 20.4812 70.967 20.5283 70.9536 20.5733C70.9402 20.6182 70.9179 20.66 70.8882 20.6964C70.8585 20.7327 70.8219 20.7627 70.7805 20.7848C70.7391 20.8069 70.6938 20.8205 70.6471 20.8249H70.6116Z" fill="#F8F9FA"/>
<path d="M70.7524 28.563C70.6583 28.563 70.568 28.5256 70.5014 28.459C70.4349 28.3925 70.3975 28.3022 70.3975 28.208V23.3276C70.3975 23.2335 70.4349 23.1432 70.5014 23.0766C70.568 23.0101 70.6583 22.9727 70.7524 22.9727C70.8465 22.9727 70.9368 23.0101 71.0034 23.0766C71.07 23.1432 71.1073 23.2335 71.1073 23.3276V28.208C71.1073 28.3022 71.07 28.3925 71.0034 28.459C70.9368 28.5256 70.8465 28.563 70.7524 28.563Z" fill="#F8F9FA"/>
<path d="M33.1995 18.8712H33.1107C33.0208 18.8425 32.9452 18.7807 32.8991 18.6983C32.853 18.616 32.8398 18.5192 32.8623 18.4275C34.6015 12.4468 39.0205 9.19906 39.198 9.05708C39.2363 9.03002 39.2797 9.01084 39.3255 9.00065C39.3714 8.99046 39.4187 8.98946 39.465 8.99771C39.5112 9.00597 39.5553 9.02331 39.5948 9.04873C39.6342 9.07415 39.6683 9.10715 39.6949 9.14582C39.7229 9.18311 39.7432 9.22554 39.7548 9.27069C39.7663 9.31585 39.7689 9.36284 39.7623 9.40898C39.7557 9.45512 39.7401 9.49952 39.7164 9.53962C39.6926 9.57973 39.6612 9.61477 39.6239 9.64274C39.5707 9.66048 35.2049 12.8904 33.5367 18.6228C33.5198 18.6978 33.4764 18.7643 33.4145 18.81C33.3525 18.8556 33.2762 18.8774 33.1995 18.8712Z" fill="#F8F9FA"/>
<path d="M32.3844 24.7461C32.3022 24.7445 32.2229 24.7158 32.1587 24.6645C32.0945 24.6131 32.0491 24.542 32.0295 24.4621C31.7988 23.4757 31.7988 22.4493 32.0295 21.4628C32.04 21.4174 32.0593 21.3744 32.0864 21.3364C32.1134 21.2985 32.1477 21.2662 32.1873 21.2415C32.2268 21.2167 32.2709 21.2 32.3169 21.1924C32.3629 21.1847 32.41 21.1861 32.4554 21.1966C32.5021 21.2047 32.5466 21.2226 32.5859 21.2491C32.6252 21.2755 32.6585 21.31 32.6837 21.3501C32.7088 21.3903 32.7251 21.4354 32.7317 21.4823C32.7382 21.5293 32.7348 21.577 32.7216 21.6226C32.5266 22.5052 32.5266 23.4197 32.7216 24.3024C32.7348 24.3479 32.7382 24.3957 32.7317 24.4426C32.7251 24.4896 32.7088 24.5346 32.6837 24.5748C32.6585 24.615 32.6252 24.6494 32.5859 24.6759C32.5466 24.7023 32.5021 24.7202 32.4554 24.7283L32.3844 24.7461Z" fill="#F8F9FA"/>
<path d="M101.81 75.2539C106.815 109.772 93.1497 112.079 84.6133 105.459C80.4428 102.229 77.5677 97.2958 76.8224 95.5033C76.7884 95.4281 76.7707 95.3466 76.7705 95.2641C76.7703 95.1816 76.7875 95.0999 76.821 95.0245C76.8545 94.9491 76.9036 94.8816 76.965 94.8265C77.0264 94.7714 77.0987 94.7299 77.1773 94.7047C78.9165 94.119 83.9744 92.2379 85.8734 89.5935" fill="#F8F9FA"/>
<path d="M92.2451 108.778C89.7072 108.778 86.9742 107.749 84.3831 105.743C79.9641 102.301 77.1245 97.1716 76.4857 95.6454C76.3935 95.3982 76.3999 95.125 76.5034 94.8823C76.5564 94.7643 76.6324 94.6581 76.7268 94.5697C76.8213 94.4814 76.9323 94.4127 77.0536 94.3676C78.5976 93.8529 83.7265 91.9718 85.5722 89.3807C85.6286 89.3054 85.7127 89.2556 85.8059 89.2423C85.8991 89.229 85.9938 89.2532 86.0691 89.3097C86.1077 89.3363 86.1407 89.3704 86.1662 89.4098C86.1916 89.4493 86.2089 89.4934 86.2172 89.5396C86.2254 89.5858 86.2244 89.6332 86.2142 89.6791C86.2041 89.7249 86.1849 89.7682 86.1578 89.8066C84.2411 92.4864 79.3074 94.3676 77.2843 95.042C77.2243 95.0747 77.175 95.124 77.1423 95.184C77.1245 95.2418 77.1245 95.3036 77.1423 95.3614C77.9232 97.2249 80.8337 102.088 84.8268 105.176C88.8199 108.264 92.9727 108.885 96.1849 107.021C99.3971 105.158 104.792 98.272 101.456 75.2895C101.448 75.2438 101.45 75.1971 101.462 75.1522C101.473 75.1073 101.493 75.0653 101.522 75.0287C101.55 74.992 101.586 74.9616 101.626 74.9393C101.667 74.917 101.711 74.9033 101.757 74.8991C101.804 74.8915 101.852 74.8934 101.898 74.9046C101.944 74.9157 101.987 74.9359 102.025 74.964C102.063 74.9921 102.095 75.0276 102.119 75.0682C102.143 75.1089 102.159 75.1539 102.166 75.2008C103.514 84.5357 103.603 92.1315 102.396 97.7573C101.349 102.655 99.3794 105.974 96.5398 107.642C95.2304 108.386 93.7507 108.777 92.2451 108.778Z" fill="#212529"/>
<path d="M115.547 108.424H0.474609V109.134H115.547V108.424Z" fill="#212529"/>
<path d="M101.171 76.372C101.171 76.372 106.904 64.1443 101.171 63.7539C101.171 63.7539 103.07 57.9328 97.906 58.6782C97.906 58.6782 97.8527 50.4436 89.7423 52.4845C89.7423 52.4845 88.9259 56.9922 84.8619 54.3834C84.8619 54.3834 81.2415 48.8818 80.4074 54.1172C80.2476 55.0755 84.8796 58.8557 85.696 60.3642C87.8611 64.3927 89.3696 72.095 88.855 80.1344C88.642 83.5773 88.358 87.9431 88.429 91.599L101.171 76.372Z" fill="#F8F9FA"/>
<path d="M90.8961 52.0227C93.7888 50.7627 92.3336 57.8082 89.2988 60.0976C89.1412 60.2166 88.9592 60.299 88.7658 60.3389C88.5724 60.3788 88.3726 60.3752 88.1808 60.3283C87.4531 60.1331 86.2463 58.7488 87.0094 56.6192" fill="#F8F9FA"/>
<path d="M88.5004 60.7199C88.3625 60.7209 88.2252 60.703 88.0922 60.6666C87.613 60.5424 87.0984 60.081 86.7789 59.4776C86.4595 58.8742 86.282 57.5786 86.6724 56.5138C86.6798 56.4618 86.6985 56.412 86.7274 56.3682C86.7563 56.3243 86.7945 56.2873 86.8394 56.26C86.8843 56.2327 86.9347 56.2157 86.9869 56.2103C87.0392 56.2048 87.092 56.211 87.1416 56.2284C87.1912 56.2458 87.2362 56.274 87.2736 56.311C87.3109 56.3479 87.3396 56.3927 87.3575 56.4421C87.3755 56.4914 87.3822 56.5442 87.3773 56.5965C87.3724 56.6488 87.3559 56.6994 87.3291 56.7445C86.9386 57.8626 87.1516 58.679 87.4001 59.1581C87.6485 59.6373 88.0212 59.9213 88.2697 59.9745C88.4091 60.0097 88.5546 60.0136 88.6957 59.986C88.8369 59.9583 88.9701 59.8999 89.086 59.8148C91.3577 58.0933 92.6355 53.692 91.9078 52.4675C91.8368 52.361 91.6771 52.0771 91.0382 52.3433C90.9572 52.3634 90.8717 52.3544 90.7967 52.3178C90.7217 52.2812 90.662 52.2193 90.6281 52.143C90.5942 52.0667 90.5882 51.9809 90.6113 51.9007C90.6344 51.8205 90.685 51.751 90.7543 51.7044C91.8546 51.2252 92.3693 51.8286 92.529 52.1126C93.4696 53.7275 91.9788 58.5192 89.512 60.3827C89.2214 60.6039 88.8656 60.7225 88.5004 60.7199Z" fill="#212529"/>
<path d="M95.0489 55.3781C99.3082 53.8341 95.6878 63.595 91.748 64.6598C91.748 64.6598 89.7603 64.8728 89.8136 62.5656" fill="#F8F9FA"/>
<path d="M91.6231 65.0139C91.0771 65.0292 90.5452 64.8392 90.1324 64.4815C89.6709 64.0556 89.4402 63.3989 89.458 62.5648C89.458 62.4707 89.4954 62.3804 89.5619 62.3138C89.6285 62.2473 89.7188 62.2099 89.8129 62.2099H89.8307C89.9232 62.2187 90.0091 62.2619 90.0715 62.3308C90.1339 62.3998 90.1683 62.4896 90.1679 62.5826C90.1501 63.2037 90.3098 63.6651 90.6115 63.9491C90.9085 64.1984 91.2892 64.3253 91.6764 64.304C93.735 63.7184 95.8292 60.4707 96.4503 57.8796C96.6988 56.8325 96.6455 56.0161 96.3083 55.7144C95.9712 55.4127 95.5275 55.5725 95.1548 55.7144C95.0654 55.745 94.9674 55.7389 94.8826 55.6973C94.7977 55.6557 94.7328 55.582 94.7022 55.4926C94.6716 55.4032 94.6778 55.3053 94.7194 55.2204C94.761 55.1355 94.8346 55.0707 94.9241 55.0401C95.7227 54.7561 96.3438 54.8093 96.7875 55.182C97.2312 55.5547 97.4619 56.6728 97.1425 58.0393C96.5568 60.5239 94.3917 64.304 91.8361 64.9962H91.6231V65.0139Z" fill="#212529"/>
<path d="M99.0058 59.5492C103.034 58.7683 100.248 68.334 94.2318 68.7777C94.2318 68.7777 91.5698 68.8664 91.8715 66.4351" fill="#F8F9FA"/>
<path d="M94.2153 69.1311C93.9491 69.1311 92.7423 69.0779 92.0324 68.297C91.5887 67.8178 91.429 67.179 91.5177 66.3981C91.5221 66.3514 91.5358 66.306 91.5579 66.2646C91.5799 66.2232 91.61 66.1866 91.6463 66.1569C91.6826 66.1272 91.7244 66.105 91.7694 66.0916C91.8143 66.0781 91.8615 66.0737 91.9081 66.0786C92.0021 66.0958 92.0865 66.1468 92.1454 66.2221C92.2042 66.2973 92.2335 66.3915 92.2276 66.4868C92.1566 67.0547 92.2631 67.4984 92.547 67.8178C93.1149 68.439 94.2153 68.4212 94.2153 68.4212C97.0725 68.2083 99.0957 65.7947 99.9653 63.7893C100.622 62.263 100.728 60.8255 100.232 60.1866C99.9831 59.8849 99.5926 59.7962 99.0602 59.9027C98.9685 59.9182 98.8744 59.8972 98.7981 59.8441C98.7218 59.791 98.6693 59.7101 98.652 59.6187C98.636 59.5249 98.6565 59.4285 98.7093 59.3493C98.7621 59.2701 98.8432 59.2141 98.936 59.1928C99.9298 58.9976 100.498 59.388 100.782 59.7429C101.474 60.5948 101.403 62.263 100.622 64.0732C99.6281 66.3626 97.4275 68.9004 94.2508 69.1311H94.2153Z" fill="#212529"/>
<path d="M89.2279 53.94L80.2124 41.9785L76.5742 45.7409L86.761 56.3891C86.846 56.4727 86.951 56.533 87.0661 56.5641C87.1811 56.5952 87.3022 56.5961 87.4177 56.5666C87.8969 56.4246 88.731 55.9987 89.3166 54.5967C89.3596 54.4888 89.374 54.3717 89.3585 54.2567C89.3429 54.1417 89.2979 54.0326 89.2279 53.94Z" fill="#F8F9FA"/>
<path d="M87.2399 56.9387C87.103 56.9394 86.9674 56.9114 86.8421 56.8563C86.7167 56.8013 86.6043 56.7205 86.5122 56.6192L76.0947 45.7403L80.2475 41.4277L89.5115 53.7265C89.6196 53.8654 89.6896 54.0302 89.7145 54.2045C89.7394 54.3788 89.7184 54.5566 89.6535 54.7203C88.9968 56.2998 88.0208 56.7612 87.5061 56.9032C87.4205 56.9323 87.3301 56.9443 87.2399 56.9387ZM77.0708 45.7403L87.0269 56.1401C87.0643 56.1756 87.1094 56.202 87.1586 56.2174C87.2078 56.2328 87.2599 56.2367 87.3109 56.2288C87.719 56.1223 88.4467 55.7496 88.9968 54.4541C89.0157 54.4036 89.0207 54.349 89.0114 54.296C89.002 54.2429 88.9786 54.1933 88.9436 54.1524L80.1766 42.5103L77.0708 45.7403Z" fill="#212529"/>
<path d="M37.1409 24.0892C35.242 25.3137 34.6386 26.0413 34.887 28.2952C35.0468 29.6085 36.0761 31.8979 37.1409 32.6787C38.2057 33.4596 38.9866 33.4419 39.4125 33.85C40.4241 34.8261 40.4774 35.8732 40.6016 36.938C40.921 39.6001 43.3879 41.2683 45.695 42.6526C49.3686 44.8532 54.4975 44.2498 57.5678 41.2683C59.307 39.5823 60.8155 37.5237 61.4544 35.1811C62.2353 32.2883 65.1458 30.0699 65.2168 29.9634C65.9976 28.5969 66.3526 27.5143 66.1751 25.9348C65.9444 23.8762 63.0339 22.1015 61.3657 20.8769C57.4968 18.0019 54.533 14.9849 50.9126 11.4177C50.7788 11.2886 50.6187 11.1899 50.4433 11.1281C50.2678 11.0664 50.0812 11.0432 49.896 11.06C49.7107 11.0768 49.5313 11.1334 49.3699 11.2257C49.2085 11.3181 49.0688 11.4441 48.9605 11.5952C46.3871 15.1269 46.1387 18.0019 39.4125 21.9063" fill="#F8F9FA"/>
<path d="M50.5395 44.2509H50.433C44.7539 44.1976 41.9676 40.7547 40.6188 37.8797C39.7204 35.9042 39.1911 33.781 39.0571 31.6149C39.0547 31.5692 39.0616 31.5234 39.0775 31.4804C39.0934 31.4375 39.1178 31.3982 39.1494 31.365C39.1809 31.3317 39.2189 31.3053 39.261 31.2873C39.3031 31.2692 39.3485 31.2599 39.3943 31.26H39.412C39.4578 31.2576 39.5036 31.2645 39.5465 31.2804C39.5895 31.2963 39.6288 31.3207 39.662 31.3523C39.6953 31.3838 39.7217 31.4218 39.7397 31.4639C39.7578 31.506 39.7671 31.5514 39.767 31.5972C39.9085 33.6706 40.4194 35.702 41.2755 37.5957C43.1034 41.5001 46.1914 43.5055 50.433 43.541H50.5572C55.065 43.541 58.3482 41.1984 60.3004 36.5664C61.7734 33.0525 61.8798 29.4853 61.8976 29.4498C61.8872 29.3976 61.8886 29.3436 61.9019 29.292C61.9151 29.2405 61.9398 29.1925 61.9741 29.1517C62.0084 29.111 62.0515 29.0785 62.1 29.0566C62.1486 29.0348 62.2015 29.0241 62.2548 29.0255C62.308 29.0269 62.3603 29.0402 62.4077 29.0645C62.4551 29.0888 62.4964 29.1235 62.5286 29.166C62.5607 29.2084 62.5829 29.2576 62.5935 29.3098C62.6041 29.362 62.6028 29.4159 62.5897 29.4675C62.4654 32.0029 61.9134 34.499 60.957 36.8503C58.9161 41.6953 55.3134 44.2509 50.5395 44.2509Z" fill="#212529"/>
<path d="M39.1809 33.8514C38.2295 33.8477 37.3061 33.5295 36.5544 32.9463C35.454 32.059 34.7796 30.6392 34.5667 28.7225C34.2295 25.6878 35.1168 25.0134 35.9155 24.41C36.7141 23.8066 36.9803 23.5936 36.8206 21.9432C36.8152 21.8499 36.845 21.758 36.9042 21.6857C36.9633 21.6134 37.0475 21.5659 37.14 21.5527C37.1867 21.5478 37.2338 21.5522 37.2788 21.5657C37.3237 21.5791 37.3655 21.6013 37.4018 21.631C37.4382 21.6607 37.4682 21.6973 37.4903 21.7387C37.5124 21.7801 37.526 21.8255 37.5304 21.8722C37.7257 23.9131 36.9803 24.481 36.3414 24.9779C35.7025 25.4748 34.9926 26.0072 35.2766 28.6338C35.809 33.4788 39.2342 33.1593 39.3761 33.1416C39.4218 33.1341 39.4685 33.136 39.5134 33.1474C39.5583 33.1587 39.6004 33.1792 39.637 33.2075C39.6736 33.2358 39.704 33.2713 39.7263 33.3119C39.7486 33.3525 39.7623 33.3972 39.7666 33.4433C39.7715 33.4899 39.7671 33.5371 39.7536 33.582C39.7402 33.627 39.718 33.6688 39.6883 33.7051C39.6586 33.7414 39.622 33.7715 39.5806 33.7935C39.5392 33.8156 39.4938 33.8293 39.4471 33.8337L39.1809 33.8514Z" fill="#212529"/>
<path d="M44.3453 28.4191C44.7766 28.4191 45.1262 27.8868 45.1262 27.2301C45.1262 26.5734 44.7766 26.041 44.3453 26.041C43.9141 26.041 43.5645 26.5734 43.5645 27.2301C43.5645 27.8868 43.9141 28.4191 44.3453 28.4191Z" fill="#212529"/>
<path d="M42.376 24.8344C42.2785 24.8304 42.1847 24.7957 42.1081 24.7351C42.0316 24.6745 41.9763 24.5912 41.9501 24.4972C41.9341 24.4401 41.9297 24.3803 41.9371 24.3215C41.9446 24.2627 41.9638 24.2059 41.9936 24.1546C42.0234 24.1033 42.0631 24.0585 42.1105 24.0229C42.1579 23.9872 42.212 23.9614 42.2695 23.947L46.1916 22.9177C46.2464 22.9016 46.3038 22.8967 46.3605 22.9032C46.4172 22.9097 46.4721 22.9276 46.5217 22.9558C46.5714 22.9839 46.6149 23.0217 46.6496 23.067C46.6844 23.1123 46.7097 23.1641 46.724 23.2194C46.757 23.3323 46.7437 23.4538 46.6871 23.5569C46.6305 23.6601 46.5353 23.7366 46.4223 23.7695L42.5002 24.8166L42.376 24.8344Z" fill="#212529"/>
<path d="M48.7824 33.8513H48.7647C47.9838 33.7803 47.4869 33.5141 47.3094 33.0349C46.919 32.0234 48.25 30.5858 48.534 30.3196C48.598 30.2522 48.6859 30.2125 48.7788 30.2092C48.8717 30.2059 48.9622 30.2392 49.0309 30.3019C49.0971 30.3712 49.134 30.4634 49.134 30.5592C49.134 30.6551 49.0971 30.7472 49.0309 30.8166C48.5162 31.349 47.8063 32.3606 47.9838 32.7865C48.1613 33.2124 48.534 33.1237 48.8002 33.1414C48.8476 33.1412 48.8946 33.1509 48.938 33.17C48.9814 33.1891 49.0203 33.2172 49.0521 33.2524C49.0839 33.2876 49.108 33.3291 49.1226 33.3742C49.1373 33.4193 49.1424 33.4669 49.1374 33.5141C49.1289 33.6037 49.0883 33.6872 49.023 33.7492C48.9578 33.8111 48.8723 33.8474 48.7824 33.8513Z" fill="#212529"/>
<path d="M69.99 47.6577C80.1737 47.6577 88.4292 39.4022 88.4292 29.2185C88.4292 19.0348 80.1737 10.7793 69.99 10.7793C59.8063 10.7793 51.5508 19.0348 51.5508 29.2185C51.5508 39.4022 59.8063 47.6577 69.99 47.6577Z" fill="#F8F9FA"/>
<path d="M69.9895 48.0299C59.6252 48.0299 51.1953 39.5823 51.1953 29.218C51.1953 24.2335 53.1754 19.4531 56.7 15.9285C60.2246 12.4039 65.0049 10.4238 69.9895 10.4238C74.974 10.4238 79.7543 12.4039 83.2789 15.9285C86.8035 19.4531 88.7836 24.2335 88.7836 29.218C88.7836 39.5823 80.3537 48.0299 69.9895 48.0299ZM69.9895 11.1337C65.1947 11.1384 60.5976 13.0452 57.2071 16.4357C53.8167 19.8261 51.9099 24.4232 51.9052 29.218C51.9052 39.1918 60.0156 47.32 69.9895 47.32C79.9633 47.32 88.0737 39.1918 88.0737 29.218C88.069 24.4232 86.1622 19.8261 82.7718 16.4357C79.3813 13.0452 74.7843 11.1384 69.9895 11.1337Z" fill="#212529"/>
<path d="M69.9897 44.4814C78.2327 44.4814 84.915 37.7992 84.915 29.5561C84.915 21.3131 78.2327 14.6309 69.9897 14.6309C61.7467 14.6309 55.0645 21.3131 55.0645 29.5561C55.0645 37.7992 61.7467 44.4814 69.9897 44.4814Z" fill="#F8F9FA"/>
<path d="M69.9902 44.8358C66.9681 44.8358 64.0138 43.9397 61.501 42.2607C58.9881 40.5817 57.0296 38.1952 55.8731 35.4031C54.7166 32.611 54.414 29.5387 55.0036 26.5746C55.5932 23.6105 57.0485 20.8878 59.1854 18.7509C61.3224 16.6139 64.0451 15.1586 67.0092 14.569C69.9732 13.9794 73.0456 14.282 75.8377 15.4385C78.6298 16.5951 81.0162 18.5536 82.6952 21.0664C84.3743 23.5792 85.2704 26.5335 85.2704 29.5556C85.2657 33.6068 83.6543 37.4906 80.7898 40.3552C77.9252 43.2198 74.0413 44.8312 69.9902 44.8358ZM69.9902 14.9853C67.1085 14.9853 64.2914 15.8398 61.8953 17.4408C59.4993 19.0418 57.6317 21.3174 56.529 23.9798C55.4262 26.6422 55.1376 29.5718 55.6998 32.3982C56.262 35.2245 57.6497 37.8207 59.6874 39.8584C61.7251 41.8961 64.3213 43.2838 67.1477 43.846C69.974 44.4082 72.9036 44.1197 75.566 43.0169C78.2284 41.9141 80.504 40.0466 82.105 37.6505C83.706 35.2544 84.5605 32.4374 84.5605 29.5556C84.5558 25.6928 83.0192 21.9895 80.2878 19.258C77.5563 16.5266 73.8531 14.99 69.9902 14.9853Z" fill="#212529"/>
<path d="M58.5248 28.4561C59.3971 28.4561 60.1043 27.3755 60.1043 26.0425C60.1043 24.7095 59.3971 23.6289 58.5248 23.6289C57.6525 23.6289 56.9453 24.7095 56.9453 26.0425C56.9453 27.3755 57.6525 28.4561 58.5248 28.4561Z" fill="#212529"/>
<path d="M63.1396 42.8313C63.1396 42.8313 73.4329 30.9408 66.6358 15.0039L63.1396 42.8313Z" fill="#F8F9FA"/>
<path d="M63.1393 43.1854C63.0545 43.1829 62.9731 43.1516 62.9086 43.0966C62.8386 43.0351 62.7956 42.9484 62.789 42.8555C62.7823 42.7625 62.8125 42.6706 62.8731 42.5997C62.8908 42.5642 65.4286 39.6005 67.1146 34.7378C68.6586 30.2833 69.7767 23.2554 66.316 15.145C66.2798 15.0601 66.2781 14.9645 66.3112 14.8783C66.3443 14.7922 66.4097 14.7223 66.4935 14.6836C66.5364 14.6629 66.5831 14.6511 66.6308 14.6488C66.6784 14.6466 66.726 14.654 66.7707 14.6705C66.8155 14.6871 66.8564 14.7125 66.8911 14.7452C66.9258 14.778 66.9535 14.8174 66.9726 14.8611C70.522 23.2022 69.3685 30.4252 67.7713 35.004C66.0498 39.9732 63.512 42.9369 63.4055 43.0612C63.3718 43.0988 63.3309 43.1292 63.2851 43.1506C63.2394 43.172 63.1897 43.1838 63.1393 43.1854Z" fill="#212529"/>
<path d="M26.8281 101.875C26.8281 101.875 27.0943 107.288 26.8281 108.779V101.875Z" fill="#F8F9FA"/>
<path d="M26.83 109.133H26.7768C26.684 109.111 26.6029 109.055 26.5501 108.976C26.4973 108.897 26.4768 108.801 26.4928 108.707C26.7413 107.269 26.4928 101.945 26.4751 101.892C26.4727 101.846 26.4796 101.8 26.4955 101.757C26.5113 101.715 26.5358 101.675 26.5673 101.642C26.5989 101.609 26.6369 101.582 26.679 101.564C26.7211 101.546 26.7665 101.537 26.8123 101.537C26.8594 101.532 26.9071 101.537 26.9522 101.552C26.9973 101.566 27.0388 101.59 27.074 101.622C27.1092 101.654 27.1372 101.693 27.1564 101.736C27.1755 101.78 27.1852 101.827 27.185 101.874C27.2027 102.087 27.4512 107.323 27.185 108.831C27.1721 108.916 27.1291 108.993 27.0639 109.048C26.9987 109.104 26.9156 109.134 26.83 109.133Z" fill="#212529"/>
<path d="M47.5218 40.4531C46.8296 40.4531 46.2617 39.7609 46.2617 38.9268C46.2617 38.0927 46.8296 37.3828 47.5218 37.3828C48.2139 37.3828 48.7818 38.0749 48.7818 38.9268C48.7818 39.7787 48.2139 40.4531 47.5218 40.4531ZM47.5218 38.0927C47.2201 38.0927 46.9716 38.4831 46.9716 38.9268C46.9716 39.3705 47.2201 39.7432 47.5218 39.7432C47.8235 39.7432 48.0719 39.3705 48.0719 38.9268C48.0719 38.4831 47.8235 38.0927 47.5218 38.0927Z" fill="#212529"/>
<path d="M96.3618 72.966C96.0766 72.96 95.7921 72.9363 95.5099 72.895C93.9659 72.6643 92.9898 72.2384 92.5994 71.635C92.5217 71.5257 92.4688 71.4009 92.4443 71.2691C92.4198 71.1373 92.4242 71.0018 92.4574 70.8719L93.1318 71.0671C93.1305 71.1095 93.1377 71.1518 93.153 71.1914C93.1682 71.231 93.1912 71.2672 93.2206 71.2978C93.398 71.5463 93.9304 71.9722 95.5987 72.2029L96.344 72.2561C99.4853 72.2561 101.934 69.3989 102.538 67.7839C102.685 67.3908 102.714 66.9635 102.623 66.5539C102.532 66.1443 102.323 65.7701 102.023 65.4768C101.988 65.4464 101.959 65.409 101.938 65.3669C101.918 65.3248 101.907 65.2789 101.905 65.2322C101.903 65.1855 101.911 65.1389 101.929 65.0955C101.946 65.052 101.972 65.0127 102.005 64.9799C102.067 64.9099 102.154 64.8669 102.247 64.8603C102.34 64.8536 102.431 64.8838 102.502 64.9444C102.556 64.9976 103.887 66.2221 103.194 68.0323C102.502 69.8425 99.8757 72.966 96.3618 72.966Z" fill="#212529"/>
<path d="M101.42 75.6622C101.278 75.6686 101.138 75.638 101.012 75.5735C100.97 75.5528 100.932 75.5238 100.901 75.4884C100.87 75.453 100.847 75.4119 100.832 75.3673C100.817 75.3227 100.811 75.2756 100.814 75.2288C100.818 75.1819 100.831 75.1362 100.852 75.0943C100.872 75.0519 100.901 75.0142 100.937 74.9837C100.973 74.9532 101.015 74.9305 101.06 74.9171C101.105 74.9038 101.153 74.9 101.199 74.906C101.246 74.9121 101.291 74.9279 101.331 74.9524C101.508 74.9692 101.685 74.9386 101.846 74.8636C102.644 74.5264 103.567 73.6923 103.656 73.4261C103.675 73.3757 103.68 73.3211 103.671 73.268C103.661 73.2149 103.638 73.1654 103.603 73.1244L101.473 70.0187C101.446 69.9817 101.428 69.9398 101.418 69.8953C101.408 69.8509 101.407 69.8049 101.415 69.7601C101.423 69.7154 101.441 69.6727 101.466 69.6348C101.491 69.5969 101.524 69.5645 101.562 69.5395C101.6 69.5124 101.644 69.4933 101.689 69.4831C101.735 69.4729 101.783 69.4719 101.829 69.4801C101.875 69.4884 101.919 69.5057 101.959 69.5312C101.998 69.5566 102.032 69.5896 102.059 69.6282L104.188 72.7162C104.281 72.8524 104.342 73.0076 104.366 73.1704C104.391 73.3332 104.379 73.4994 104.33 73.6568C104.135 74.207 102.999 75.1653 102.112 75.5203C101.893 75.613 101.658 75.6613 101.42 75.6622Z" fill="#212529"/>
<path d="M101.172 75.6102C101.117 75.6089 101.063 75.5955 101.014 75.571C100.965 75.5464 100.922 75.5113 100.888 75.4682L98.7047 72.2915C98.6779 72.253 98.659 72.2097 98.6489 72.1639C98.6389 72.1181 98.6379 72.0708 98.6462 72.0247C98.6544 71.9785 98.6717 71.9344 98.6969 71.895C98.7222 71.8555 98.755 71.8214 98.7935 71.7946C98.8319 71.7678 98.8753 71.7488 98.9211 71.7388C98.9668 71.7287 99.0142 71.7278 99.0603 71.736C99.1064 71.7443 99.1505 71.7615 99.19 71.7868C99.2295 71.8121 99.2636 71.8449 99.2904 71.8833L101.473 75.06C101.499 75.0995 101.518 75.1438 101.526 75.1903C101.535 75.2368 101.535 75.2846 101.525 75.3309C101.515 75.3772 101.496 75.4211 101.469 75.4599C101.441 75.4987 101.407 75.5317 101.367 75.557C101.308 75.5933 101.24 75.6118 101.172 75.6102Z" fill="#212529"/>
<path d="M70.0961 117.421C74.3695 117.421 77.8338 113.996 77.8338 109.772C77.8338 105.548 74.3695 102.123 70.0961 102.123C65.8227 102.123 62.3584 105.548 62.3584 109.772C62.3584 113.996 65.8227 117.421 70.0961 117.421Z" fill="#F8F9FA"/>
<path d="M70.1849 117.776H69.617L66.3516 117.385L68.9781 117.066V116.977L69.2798 117.013C71.041 116.791 72.6601 115.932 73.8308 114.598C75.0015 113.264 75.6428 111.547 75.6333 109.772C75.6333 105.974 73.1487 103.01 69.5993 102.584L66.6888 102.247L69.5993 101.892L69.7412 101.839C69.8775 101.789 70.022 101.765 70.1672 101.768C71.2977 101.765 72.4158 102.002 73.4481 102.463C74.4804 102.924 75.4033 103.598 76.1561 104.442C76.909 105.285 77.4746 106.278 77.8158 107.356C78.157 108.434 78.266 109.572 78.1356 110.695C77.9019 112.642 76.9647 114.436 75.5004 115.74C74.0362 117.044 72.1457 117.768 70.1849 117.776ZM72.7582 102.957C74.9589 104.323 76.3432 106.808 76.3432 109.772C76.3458 111.191 75.9728 112.585 75.2621 113.813C74.5514 115.041 73.5283 116.059 72.2968 116.764C73.1804 116.486 74.0048 116.047 74.7282 115.469C75.4783 114.878 76.1031 114.144 76.5663 113.309C77.0294 112.474 77.3216 111.555 77.4257 110.606C77.5469 109.582 77.4481 108.544 77.1359 107.562C76.8238 106.58 76.3054 105.675 75.6155 104.909C74.829 104.044 73.8503 103.375 72.7582 102.957Z" fill="#212529"/>
<path d="M69.7239 117.742H69.2979C65.2694 117.742 62.0039 114.157 62.0039 109.773C62.0039 105.39 65.2161 101.77 69.1737 101.77C69.4644 101.77 69.7548 101.787 70.0433 101.823C73.6282 102.32 76.3435 105.727 76.3435 109.773C76.3435 113.82 73.6282 117.245 70.0433 117.724L69.7239 117.742ZM69.1737 102.479C65.6066 102.479 62.7138 105.763 62.7138 109.773C62.7138 113.784 65.6775 117.032 69.2979 117.032H69.5642C69.6886 117.043 69.814 117.037 69.9368 117.014C73.1846 116.588 75.6337 113.465 75.6337 109.773C75.6337 106.082 73.1846 102.976 69.9368 102.533C69.684 102.497 69.429 102.479 69.1737 102.479Z" fill="#212529"/>
<path d="M69.1732 115.647C66.2627 115.647 63.9023 113.02 63.9023 109.773C63.9023 106.525 66.2627 103.916 69.1732 103.916L69.8121 103.952C72.4387 104.306 74.4264 106.809 74.4264 109.773C74.4264 112.736 72.4387 115.239 69.8121 115.594C69.601 115.629 69.3873 115.647 69.1732 115.647ZM69.1732 104.626C66.6531 104.626 64.6122 106.933 64.6122 109.773C64.6122 112.612 66.6531 114.937 69.1732 114.937L69.7056 114.901C71.995 114.582 73.7165 112.381 73.7165 109.773C73.7165 107.164 71.995 104.963 69.7056 104.661C69.5298 104.632 69.3514 104.62 69.1732 104.626Z" fill="#212529"/>
<path d="M76.5928 106.171H74.9956C74.9014 106.171 74.8111 106.133 74.7446 106.067C74.678 106 74.6406 105.91 74.6406 105.816C74.6406 105.722 74.678 105.631 74.7446 105.565C74.8111 105.498 74.9014 105.461 74.9956 105.461H76.5928C76.6869 105.461 76.7772 105.498 76.8438 105.565C76.9103 105.631 76.9477 105.722 76.9477 105.816C76.9477 105.91 76.9103 106 76.8438 106.067C76.7772 106.133 76.6869 106.171 76.5928 106.171Z" fill="#212529"/>
<path d="M77.2131 107.979H75.7046C75.6104 107.979 75.5201 107.942 75.4536 107.875C75.387 107.809 75.3496 107.719 75.3496 107.624C75.3496 107.53 75.387 107.44 75.4536 107.373C75.5201 107.307 75.6104 107.27 75.7046 107.27H77.2131C77.3072 107.27 77.3975 107.307 77.464 107.373C77.5306 107.44 77.568 107.53 77.568 107.624C77.568 107.719 77.5306 107.809 77.464 107.875C77.3975 107.942 77.3072 107.979 77.2131 107.979Z" fill="#212529"/>
<path d="M77.8167 110.429H75.9887C75.8946 110.429 75.8043 110.391 75.7378 110.325C75.6712 110.258 75.6338 110.168 75.6338 110.074C75.6338 109.98 75.6712 109.889 75.7378 109.823C75.8043 109.756 75.8946 109.719 75.9887 109.719H77.8167C77.9108 109.719 78.0011 109.756 78.0677 109.823C78.1342 109.889 78.1716 109.98 78.1716 110.074C78.1716 110.168 78.1342 110.258 78.0677 110.325C78.0011 110.391 77.9108 110.429 77.8167 110.429Z" fill="#212529"/>
<path d="M77.1066 112.985H75.4917C75.3975 112.985 75.3072 112.948 75.2407 112.881C75.1741 112.815 75.1367 112.724 75.1367 112.63C75.1367 112.536 75.1741 112.446 75.2407 112.379C75.3072 112.313 75.3975 112.275 75.4917 112.275H77.1066C77.2008 112.275 77.2911 112.313 77.3576 112.379C77.4242 112.446 77.4616 112.536 77.4616 112.63C77.4616 112.724 77.4242 112.815 77.3576 112.881C77.2911 112.948 77.2008 112.985 77.1066 112.985Z" fill="#212529"/>
<path d="M75.4919 115.612H73.9301C73.836 115.612 73.7457 115.575 73.6791 115.508C73.6126 115.442 73.5752 115.351 73.5752 115.257C73.5752 115.163 73.6126 115.073 73.6791 115.006C73.7457 114.94 73.836 114.902 73.9301 114.902H75.4919C75.586 114.902 75.6763 114.94 75.7429 115.006C75.8094 115.073 75.8468 115.163 75.8468 115.257C75.8468 115.351 75.8094 115.442 75.7429 115.508C75.6763 115.575 75.586 115.612 75.4919 115.612Z" fill="#212529"/>
<path d="M69.7414 113.375C69.2024 113.384 68.6745 113.223 68.2329 112.914C67.381 112.275 66.9551 110.997 66.9551 109.134C66.9728 107.536 67.3455 106.614 68.0909 106.294C69.2444 105.797 70.7175 107.128 70.8772 107.27C70.9446 107.334 70.9843 107.422 70.9876 107.515C70.9909 107.608 70.9576 107.699 70.8949 107.767C70.8646 107.803 70.8272 107.832 70.7851 107.852C70.743 107.872 70.6971 107.884 70.6504 107.885C70.6036 107.887 70.5571 107.879 70.5136 107.862C70.4702 107.844 70.4308 107.818 70.398 107.785C70.0608 107.483 68.996 106.685 68.3748 106.951C67.7537 107.217 67.6827 107.909 67.665 109.134C67.665 110.766 67.9844 111.849 68.6588 112.328C69.3332 112.807 70.3803 112.63 71.0724 112.417C71.1166 112.4 71.1637 112.393 71.2107 112.396C71.2577 112.399 71.3036 112.412 71.3454 112.434C71.3872 112.456 71.424 112.486 71.4534 112.523C71.4828 112.559 71.5041 112.602 71.5161 112.648C71.5325 112.692 71.5395 112.739 71.5365 112.786C71.5336 112.833 71.5209 112.879 71.4992 112.921C71.4774 112.962 71.4472 112.999 71.4103 113.029C71.3735 113.058 71.3309 113.079 71.2854 113.091C70.7889 113.267 70.2678 113.363 69.7414 113.375Z" fill="#212529"/>
<path d="M41.4349 97.2777C41.4349 97.2777 25.0011 99.7446 25.5336 102.673C26.066 105.601 27.2195 107.518 25.6578 110.748C24.8769 112.363 23.1732 114.439 22.7118 116.8C22.2504 119.16 23.2619 121.946 25.5336 123.827C30.0946 127.607 29.9703 130.553 51.1426 123.827C51.1426 123.827 58.6673 121.911 55.4374 115.664C52.2074 109.417 50.7521 112.31 53.6627 103.897C53.6627 103.897 54.9937 100.419 50.8054 100.987C50.8054 100.987 47.4689 101.129 46.4751 99.5494C45.4813 97.9699 44.7714 95.574 41.4349 97.2777Z" fill="#F8F9FA"/>
<path d="M31.0358 113.446C31.0358 113.446 33.8044 106.755 35.8808 106.169C37.9572 105.584 50.7883 101.892 51.6047 102.815C52.421 103.738 51.2497 109.861 49.5283 110.216C47.8068 110.571 36.005 114.262 36.8214 115.185C37.6377 116.108 49.8655 112.878 51.019 113.57C52.1726 114.262 55.2428 118.078 51.8709 122.106C48.4989 126.135 32.775 128.992 31.3908 127.839C30.0065 126.685 24.221 120.261 24.6824 118.308C25.1438 116.356 24.0967 114.173 26.1909 115.132C28.285 116.09 29.7935 116.126 31.0358 113.446Z" fill="#212529"/>
<path d="M33.5728 128.389C31.4077 128.389 29.3667 128.052 28.2487 126.987C24.0071 122.976 20.6707 119.817 22.9778 114.99C25.1429 110.447 26.332 108.335 26.3497 108.299C26.3717 108.259 26.402 108.223 26.4385 108.194C26.4751 108.165 26.5172 108.144 26.5622 108.133C26.6072 108.121 26.6541 108.119 26.7 108.126C26.7459 108.133 26.7898 108.15 26.8289 108.175C26.911 108.22 26.9719 108.296 26.9985 108.386C27.0251 108.475 27.0152 108.572 26.9709 108.654C26.9531 108.672 25.7818 110.784 23.6167 115.292C21.4516 119.8 24.5573 122.515 28.7456 126.472C30.1654 127.821 34.0165 128.052 39.2874 127.076C46.5814 125.745 54.4434 122.533 55.4372 120.456C56.786 117.705 54.8515 115.15 53.2898 113.109C52.8612 112.57 52.4642 112.007 52.1007 111.423C51.4086 110.234 52.0653 108.087 52.7041 105.992C53.2721 104.182 53.9109 102.106 53.2011 101.609C51.8168 100.615 43.3692 102.496 39.3051 103.401L37.2287 103.845C33.626 104.608 30.3428 110.784 30.3073 110.837C30.2922 110.887 30.2663 110.933 30.2316 110.971C30.1968 111.01 30.1539 111.041 30.1061 111.061C30.0582 111.081 30.0064 111.091 29.9545 111.089C29.9026 111.087 29.8517 111.073 29.8055 111.05C29.7592 111.026 29.7188 110.992 29.687 110.951C29.6552 110.91 29.6328 110.862 29.6215 110.812C29.6101 110.761 29.61 110.708 29.6212 110.658C29.6324 110.607 29.6546 110.559 29.6862 110.518C29.8282 110.252 33.1469 103.987 37.0867 103.153L39.1454 102.709C45.6408 101.254 52.1007 99.9406 53.6092 101.023C54.7273 101.822 54.0707 103.951 53.3785 106.205C52.8106 108.051 52.1717 110.145 52.7219 111.068C53.0656 111.63 53.445 112.17 53.8577 112.683C55.4372 114.759 57.6023 117.617 56.0761 120.758C54.8338 123.331 46.2975 126.526 39.4116 127.786C37.8321 128.07 35.6492 128.389 33.5728 128.389Z" fill="#212529"/>
<path d="M27.7518 111.494C27.6817 111.492 27.6133 111.472 27.554 111.434C27.4947 111.397 27.4465 111.344 27.4146 111.281C27.0774 110.429 24.0959 102.993 26.4563 101.378C28.8167 99.7634 40.7604 97.2079 41.5591 97.5273C41.6037 97.5431 41.6447 97.5677 41.6797 97.5996C41.7147 97.6315 41.743 97.6701 41.7628 97.7131C41.7826 97.7561 41.7937 97.8027 41.7953 97.85C41.7968 97.8973 41.7889 97.9445 41.772 97.9887C41.7313 98.0677 41.666 98.1312 41.5859 98.1696C41.5058 98.208 41.4154 98.2193 41.3283 98.2017C40.512 98.113 28.9764 100.491 26.8645 101.964C25.4447 102.94 26.8467 108.016 28.0713 110.997C28.0917 111.039 28.1033 111.084 28.1054 111.131C28.1074 111.177 28.0999 111.223 28.0832 111.267C28.0666 111.31 28.0411 111.349 28.0085 111.383C27.976 111.416 27.9369 111.442 27.8938 111.459L27.7518 111.494Z" fill="#212529"/>
<path d="M37.9567 96.9415C36.7144 96.9415 35.4367 96.6399 34.6735 95.646C34.617 95.5707 34.5928 95.476 34.6061 95.3829C34.6194 95.2897 34.6692 95.2056 34.7445 95.1491C34.7808 95.1187 34.8231 95.0962 34.8686 95.0833C34.9142 95.0703 34.9619 95.067 35.0088 95.0737C35.0557 95.0804 35.1006 95.0969 35.1407 95.1221C35.1808 95.1473 35.2151 95.1807 35.2414 95.2201C36.7677 97.2078 41.2754 95.646 41.3109 95.6283C41.3552 95.6113 41.4023 95.6034 41.4497 95.605C41.497 95.6066 41.5435 95.6176 41.5865 95.6375C41.6295 95.6573 41.6681 95.6856 41.7 95.7206C41.732 95.7556 41.7565 95.7966 41.7724 95.8412C41.8018 95.9308 41.7962 96.0282 41.7567 96.1139C41.7172 96.1995 41.6467 96.267 41.5594 96.3026C41.4352 96.3381 39.7314 96.9415 37.9567 96.9415Z" fill="#212529"/>
<path d="M35.7032 103.029C35.6176 103.032 35.5336 103.004 35.4667 102.951C35.3999 102.897 35.3547 102.821 35.3396 102.737C35.3244 102.652 35.3403 102.565 35.3843 102.492C35.4283 102.418 35.4975 102.363 35.579 102.337C37.3714 101.68 41.6662 100.189 42.5713 100.668H42.6246C42.9085 100.544 43.2635 99.6213 43.4409 98.8226C43.4621 98.7346 43.5162 98.6579 43.5921 98.6084C43.668 98.5589 43.76 98.5403 43.8491 98.5564C43.9419 98.5777 44.023 98.6337 44.0758 98.7129C44.1286 98.7921 44.1491 98.8885 44.1331 98.9824C44.0621 99.3018 43.6716 100.97 42.9263 101.307C42.8185 101.362 42.6988 101.389 42.5779 101.386C42.4571 101.383 42.3389 101.35 42.2341 101.289C41.755 101.077 38.525 102.017 35.8097 103.011L35.7032 103.029Z" fill="#212529"/>
<path d="M28.2129 114.83C29.2322 114.83 30.0586 114.004 30.0586 112.984C30.0586 111.965 29.2322 111.139 28.2129 111.139C27.1935 111.139 26.3672 111.965 26.3672 112.984C26.3672 114.004 27.1935 114.83 28.2129 114.83Z" fill="#212529"/>
<path d="M34.3008 96C35.3201 96 36.1465 95.1736 36.1465 94.1543C36.1465 93.1349 35.3201 92.3086 34.3008 92.3086C33.2814 92.3086 32.4551 93.1349 32.4551 94.1543C32.4551 95.1736 33.2814 96 34.3008 96Z" fill="#212529"/>
<path d="M43.7773 99.125C44.7967 99.125 45.623 98.2986 45.623 97.2793C45.623 96.2599 44.7967 95.4336 43.7773 95.4336C42.758 95.4336 41.9316 96.2599 41.9316 97.2793C41.9316 98.2986 42.758 99.125 43.7773 99.125Z" fill="#212529"/>
<path d="M40.529 131.212L40.1563 130.786C39.856 130.352 39.6448 129.864 39.5351 129.348C39.1269 127.378 40.1563 125 42.3037 123.456C44.4511 121.912 47.4326 121.593 49.154 122.87C49.4532 123.096 49.7164 123.365 49.9349 123.669C50.0501 123.816 50.1456 123.977 50.2189 124.148C51.3014 126.225 50.2899 129.171 47.8053 130.999C45.3207 132.827 42.1794 132.862 40.529 131.212Z" fill="#F8F9FA"/>
<path d="M43.7064 132.754C42.3754 132.754 41.1508 132.328 40.2812 131.459C40.1359 131.313 39.9996 131.159 39.873 130.997C39.5863 130.587 39.3704 130.131 39.2342 129.649C39.2121 129.563 39.2173 129.472 39.2491 129.39C39.2809 129.307 39.3377 129.236 39.4116 129.187C39.4822 129.133 39.5681 129.101 39.6572 129.098C39.7464 129.095 39.8343 129.12 39.9085 129.169C41.559 130.252 44.1323 129.986 46.1733 128.495C48.2142 127.004 49.208 124.821 48.7998 122.94L48.6046 122.035L49.3677 122.585C49.6948 122.83 49.9822 123.123 50.2196 123.455C50.339 123.624 50.4458 123.802 50.539 123.987C51.7103 126.241 50.61 129.382 48.0012 131.281C46.7587 132.209 45.2568 132.724 43.7064 132.754ZM40.1747 130.128C40.2635 130.27 40.3522 130.43 40.4587 130.572C40.5554 130.709 40.6622 130.84 40.7781 130.962C42.3399 132.506 45.2682 132.399 47.593 130.713C49.9179 129.01 50.9117 126.259 49.9179 124.307C49.8292 124.165 49.7582 124.023 49.6517 123.863L49.5984 123.81C49.5807 125.691 48.4626 127.714 46.5992 129.063C44.7357 130.412 42.0382 130.926 40.1747 130.128Z" fill="#212529"/>
<path d="M42.2867 130.555C41.2245 130.58 40.1835 130.256 39.3229 129.633L39.2164 129.544L39.1809 129.42C38.7373 127.272 39.9086 124.752 42.0915 123.155C44.2743 121.558 47.4688 121.185 49.3678 122.587L49.4742 122.676V122.8C49.9357 124.947 48.7644 127.467 46.5815 129.065C45.2504 130.041 43.7064 130.555 42.2867 130.555ZM39.8553 129.136C41.5058 130.271 44.0791 130.023 46.1733 128.497C48.1077 127.095 49.1548 124.93 48.8353 123.084C47.1849 121.948 44.6115 122.214 42.4996 123.74C40.3877 125.267 39.5359 127.29 39.8553 129.136Z" fill="#212529"/>
<path d="M49.297 128.23C49.229 128.229 49.1627 128.208 49.106 128.171C49.0494 128.133 49.0048 128.08 48.9776 128.017L48.2322 126.456C48.1922 126.368 48.1884 126.269 48.2217 126.179C48.255 126.089 48.3226 126.016 48.4097 125.976C48.4968 125.936 48.5962 125.933 48.686 125.966C48.7759 125.999 48.8488 126.067 48.8889 126.154L49.6165 127.716C49.6535 127.803 49.6558 127.901 49.6228 127.99C49.5898 128.079 49.5241 128.153 49.439 128.195L49.297 128.23Z" fill="#212529"/>
<path d="M47.5399 129.739C47.4768 129.736 47.4155 129.716 47.3625 129.682C47.3095 129.648 47.2665 129.6 47.2382 129.543L46.6525 128.496C46.6278 128.455 46.6118 128.409 46.6055 128.361C46.5993 128.313 46.6029 128.264 46.6162 128.217C46.6295 128.171 46.6522 128.127 46.6828 128.09C46.7135 128.052 46.7515 128.022 46.7945 127.999C46.8778 127.96 46.9729 127.952 47.0614 127.978C47.1499 128.004 47.2256 128.063 47.2737 128.141L47.8593 129.206C47.9036 129.289 47.9135 129.385 47.887 129.475C47.8604 129.565 47.7994 129.64 47.7173 129.685C47.6652 129.721 47.6031 129.74 47.5399 129.739Z" fill="#212529"/>
<path d="M44.4337 131.619C44.3671 131.621 44.3013 131.604 44.2444 131.569C44.1876 131.535 44.1423 131.484 44.1143 131.423L43.4576 130.163C43.4153 130.079 43.4083 129.981 43.4382 129.891C43.4682 129.801 43.5326 129.727 43.6174 129.684C43.7021 129.642 43.8002 129.635 43.89 129.665C43.9799 129.695 44.0542 129.759 44.0965 129.844L44.7354 131.104C44.7797 131.186 44.7896 131.283 44.7631 131.373C44.7365 131.463 44.6755 131.538 44.5934 131.583L44.4337 131.619Z" fill="#212529"/>
<path d="M41.5774 129.064C41.2934 129.064 40.7965 128.94 40.619 128.514C40.4415 128.088 40.9207 126.81 42.4647 125.284C44.0087 123.757 45.3042 123.03 46.3336 123.119C46.53 123.127 46.7227 123.175 46.8997 123.26C47.0768 123.346 47.2344 123.467 47.3629 123.615C47.4131 123.694 47.4319 123.789 47.4155 123.881C47.399 123.973 47.3486 124.056 47.2742 124.112C47.2002 124.163 47.1095 124.185 47.0206 124.171C46.9316 124.158 46.851 124.112 46.795 124.041C46.6465 123.901 46.449 123.825 46.2448 123.828C45.7834 123.793 44.7541 124.024 42.9616 125.781C41.1692 127.538 41.2402 128.176 41.2757 128.23C41.3111 128.283 41.5241 128.354 41.5774 128.354H41.5951C41.685 128.358 41.7705 128.394 41.8357 128.456C41.9009 128.518 41.9416 128.602 41.95 128.691C41.9461 128.786 41.908 128.876 41.8427 128.944C41.7774 129.013 41.6894 129.055 41.5951 129.064H41.5774Z" fill="#212529"/>
<path d="M97.9765 130.058C97.9824 129.791 97.9706 129.524 97.941 129.259C97.8698 128.51 97.6269 127.787 97.2311 127.147C95.7936 124.698 92.4217 123.189 88.6948 123.598C84.6662 124.024 81.525 126.561 80.9393 129.543C80.8415 130.064 80.8235 130.596 80.8861 131.122C80.906 131.387 80.9536 131.649 81.0281 131.903C81.8977 135.116 85.7665 137.263 90.1323 136.784C94.4981 136.305 97.8168 133.394 97.9765 130.058Z" fill="#F8F9FA"/>
<path d="M88.9264 137.209C84.9511 137.209 81.5259 135.097 80.6918 131.991C80.6181 131.717 80.5648 131.439 80.532 131.157C80.4729 130.655 80.4848 130.147 80.5675 129.648C80.5813 129.564 80.6213 129.486 80.6818 129.425C80.7423 129.365 80.8203 129.325 80.9047 129.311C80.9853 129.294 81.0692 129.302 81.1452 129.334C81.2212 129.366 81.2858 129.42 81.3307 129.489C82.7859 131.814 86.0336 133.127 89.4588 132.754C93.2034 132.346 96.2559 130.057 96.8771 127.182C96.8907 127.102 96.9287 127.028 96.9859 126.971C97.0431 126.914 97.1167 126.876 97.1965 126.862C97.276 126.853 97.3565 126.867 97.4287 126.901C97.5009 126.936 97.5619 126.99 97.6047 127.057C97.9827 127.723 98.2184 128.461 98.2968 129.222C98.326 129.505 98.3379 129.79 98.3323 130.074C98.1549 133.624 94.6587 136.641 90.1687 137.138C89.7605 137.173 89.3346 137.209 88.9264 137.209ZM81.2064 130.536C81.2064 130.713 81.2064 130.891 81.2242 131.068C81.2419 131.246 81.3129 131.583 81.3661 131.814C82.2003 134.902 85.9449 136.889 90.0977 136.428C94.2328 135.984 97.4627 133.233 97.6225 130.039C97.6275 129.79 97.6157 129.541 97.587 129.293C97.5512 128.899 97.4617 128.511 97.3208 128.14C96.2914 130.926 93.2212 133.056 89.5298 133.446C86.1933 133.819 82.9456 132.665 81.2064 130.536Z" fill="#212529"/>
<path d="M88.3051 133.518C85.0042 133.518 82.0226 132.081 80.6384 129.72L80.5674 129.614L80.6029 129.472C81.224 126.26 84.5427 123.686 88.6601 123.243C92.4224 122.834 95.9896 124.325 97.5513 126.969L97.6046 127.076V127.218C96.9834 130.448 93.6647 133.003 89.5474 133.447C89.1353 133.498 88.7203 133.522 88.3051 133.518ZM81.3305 129.49C82.768 131.814 86.0157 133.128 89.4587 132.755C93.2033 132.347 96.2381 130.075 96.8592 127.218C95.4217 124.875 92.174 123.58 88.731 123.952C84.9864 124.361 81.9517 126.614 81.3305 129.49Z" fill="#212529"/>
<path d="M85.2163 136.216C85.1307 136.217 85.0476 136.187 84.9824 136.131C84.9172 136.076 84.8742 135.999 84.8614 135.914L84.5064 132.631C84.4989 132.585 84.5009 132.538 84.5122 132.493C84.5236 132.449 84.544 132.406 84.5723 132.37C84.6006 132.333 84.6362 132.303 84.6767 132.28C84.7173 132.258 84.762 132.244 84.8081 132.24C84.8548 132.235 84.9019 132.24 84.9469 132.253C84.9918 132.267 85.0337 132.289 85.07 132.319C85.1063 132.348 85.1363 132.385 85.1584 132.426C85.1805 132.468 85.1941 132.513 85.1986 132.56L85.5712 135.825C85.5761 135.872 85.5717 135.919 85.5583 135.964C85.5449 136.009 85.5227 136.051 85.493 136.087C85.4633 136.123 85.4266 136.153 85.3852 136.175C85.3438 136.197 85.2985 136.211 85.2518 136.216H85.2163Z" fill="#212529"/>
<path d="M88.8547 136.855C88.7664 136.855 88.6811 136.823 88.6155 136.764C88.5498 136.705 88.5086 136.623 88.4997 136.535L88.0916 133.217C88.0857 133.121 88.1149 133.027 88.1738 132.952C88.2327 132.877 88.3171 132.826 88.411 132.809C88.4577 132.804 88.5048 132.808 88.5498 132.822C88.5947 132.835 88.6366 132.857 88.6729 132.887C88.7092 132.917 88.7392 132.953 88.7613 132.995C88.7834 133.036 88.797 133.081 88.8014 133.128L89.2096 136.464C89.2145 136.511 89.2101 136.558 89.1967 136.603C89.1833 136.648 89.1611 136.69 89.1313 136.726C89.1016 136.763 89.065 136.793 89.0236 136.815C88.9822 136.837 88.9369 136.85 88.8902 136.855H88.8547Z" fill="#212529"/>
<path d="M94.1081 135.896C94.025 135.898 93.944 135.87 93.8792 135.818C93.8143 135.766 93.7697 135.693 93.7531 135.612L93.061 131.974C93.045 131.88 93.0655 131.784 93.1183 131.704C93.1711 131.625 93.2522 131.569 93.3449 131.548C93.4366 131.532 93.5307 131.553 93.607 131.607C93.6834 131.66 93.7358 131.741 93.7531 131.832L94.463 135.488C94.4786 135.58 94.4575 135.674 94.4044 135.75C94.3513 135.826 94.2704 135.879 94.179 135.896H94.1081Z" fill="#212529"/>
<path d="M84.0459 128.903C83.9576 128.904 83.8723 128.871 83.8067 128.812C83.741 128.753 83.6998 128.672 83.691 128.584C83.6732 128.513 83.62 127.874 84.2411 127.217C85.2172 126.17 87.2404 125.691 90.2751 125.833C93.3099 125.975 94.8361 126.454 95.1556 127.359C95.3685 127.927 94.9603 128.477 94.6941 128.708C94.6222 128.756 94.5352 128.777 94.4493 128.765C94.3635 128.754 94.2848 128.711 94.2281 128.646C94.1713 128.58 94.1405 128.496 94.1414 128.41C94.1422 128.323 94.1747 128.24 94.2327 128.176C94.2327 128.176 94.5877 127.856 94.4812 127.59C94.3747 127.324 93.8955 126.685 90.2396 126.543C86.5837 126.401 85.3592 127.075 84.7913 127.679C84.2234 128.282 84.4008 128.495 84.4008 128.513C84.4062 128.606 84.3764 128.698 84.3172 128.77C84.2581 128.843 84.1739 128.89 84.0814 128.903H84.0459Z" fill="#212529"/>
<path d="M52.7928 69.7006C51.2488 69.7006 50.3969 68.6713 50.0065 67.9614C49.5806 68.4583 48.711 69.0617 47.0605 68.8843C44.7534 68.6181 44.2565 66.5594 44.1677 65.5301C43.5111 65.7963 42.1978 66.2399 41.0975 65.3526C40.2634 64.6782 39.9617 63.6489 40.2634 62.4953C39.3405 62.6018 37.7078 62.3888 36.714 61.3063C35.7201 60.2237 35.6669 59.1944 36.0396 57.6149C35.1522 57.7923 34.1406 57.8101 33.7147 57.2422C33.2888 56.6743 33.5017 56.1951 33.9987 55.3965L34.6021 55.7692C34.1406 56.5146 34.2471 56.763 34.2826 56.8162C34.3181 56.8695 35.0812 57.1179 36.1993 56.8517C36.2847 56.8344 36.373 56.8383 36.4566 56.863C36.5401 56.8878 36.6163 56.9327 36.6785 56.9937C36.7366 57.061 36.7782 57.1411 36.7998 57.2274C36.8214 57.3137 36.8224 57.4039 36.8027 57.4906C36.3945 58.9636 36.5542 60.0817 37.2286 60.8271C37.903 61.5725 39.6777 61.8919 40.2989 61.7854C40.4007 61.7596 40.5077 61.7625 40.6079 61.7938C40.7082 61.8252 40.7978 61.8837 40.8668 61.9629C40.9351 62.0421 40.9824 62.1374 41.0041 62.2398C41.0258 62.3422 41.0213 62.4484 40.991 62.5486C40.7958 63.2052 40.7248 64.128 41.5412 64.8024C42.3575 65.4768 43.4046 65.1041 44.1145 64.7669L44.1855 64.7314C44.256 64.6978 44.3342 64.6833 44.4121 64.6895C44.49 64.6958 44.5649 64.7225 44.6291 64.7669C44.6949 64.8101 44.7498 64.8677 44.7898 64.9354C44.8298 65.0031 44.8538 65.079 44.8599 65.1574C44.8776 65.7963 45.0906 67.9437 47.1315 68.1744C48.7287 68.3518 49.3854 67.6952 49.6338 67.287C49.6778 67.21 49.743 67.1473 49.8217 67.1063C49.9004 67.0654 49.9892 67.0481 50.0775 67.0563C50.1616 67.0572 50.2435 67.0829 50.313 67.1303C50.3825 67.1777 50.4364 67.2446 50.4679 67.3225C50.7164 67.8549 51.4263 69.0795 52.9525 68.9907C54.4788 68.902 54.7982 68.0324 54.9402 67.5C54.9585 67.4175 54.9999 67.342 55.0596 67.2822C55.1194 67.2225 55.1949 67.1811 55.2774 67.1628C55.3628 67.1454 55.4511 67.1493 55.5347 67.1741C55.6182 67.1988 55.6944 67.2437 55.7566 67.3048C56.2712 67.8904 57.6555 69.1505 59.3237 68.1744C60.9919 67.1983 60.6015 66.3642 60.2466 65.672C60.2046 65.5831 60.189 65.4841 60.2016 65.3866C60.2142 65.2891 60.2544 65.1972 60.3176 65.1219C60.3864 65.0544 60.4734 65.0084 60.5679 64.9895C60.6625 64.9706 60.7605 64.9796 60.85 65.0154C61.6663 65.3348 63.5475 65.6365 64.0622 65.0331C64.5768 64.4297 63.8847 62.868 63.6185 62.4421C63.5779 62.3696 63.5537 62.2892 63.5476 62.2064C63.5415 62.1236 63.5536 62.0405 63.583 61.9629C63.6172 61.887 63.6687 61.8201 63.7335 61.7677C63.7982 61.7153 63.8743 61.6788 63.9557 61.6612C64.4704 61.5547 66.1563 61.111 66.742 59.922C67.0614 59.2476 66.9905 58.4135 66.529 57.4551C66.4801 57.3598 66.4591 57.2525 66.4685 57.1458C66.4779 57.039 66.5174 56.937 66.5823 56.8517C66.6499 56.7647 66.7408 56.6986 66.8444 56.6609C66.948 56.6232 67.0602 56.6156 67.1679 56.6388C67.8423 56.763 69.4573 56.976 69.6348 56.0531L70.3269 56.1951C70.1139 57.2422 69.0136 57.6681 67.2744 57.3664C67.7358 58.449 67.7713 59.4073 67.3809 60.2237C66.742 61.5192 65.198 62.0871 64.3639 62.3001C64.7898 63.081 65.4287 64.554 64.6123 65.4946C63.796 66.4352 62.0213 66.098 61.0629 65.8318C61.2936 66.5771 61.3291 67.8372 59.6787 68.7955C58.0282 69.7539 56.218 68.76 55.4904 68.0679C55.2241 68.7068 54.5675 69.6119 52.988 69.7006H52.7928Z" fill="#212529"/>
<path d="M29.0825 50.9587C28.2466 50.9395 27.4266 50.7269 26.6866 50.3376L26.6157 50.3021C26.5424 50.2762 26.4791 50.2281 26.4346 50.1644C26.39 50.1008 26.3665 50.0248 26.3672 49.9472C26.3672 49.853 26.4046 49.7627 26.4712 49.6962C26.5377 49.6296 26.628 49.5922 26.7221 49.5922C26.8303 49.6008 26.9343 49.6375 27.0238 49.6987C29.331 50.8877 31.4606 50.1246 33.1821 47.4803C33.2073 47.4402 33.2403 47.4056 33.2791 47.3785C33.3179 47.3513 33.3618 47.3323 33.4081 47.3223C33.4544 47.3124 33.5022 47.3119 33.5488 47.3207C33.5953 47.3295 33.6396 47.3476 33.679 47.3738C33.7171 47.3988 33.7497 47.4312 33.7749 47.4691C33.8002 47.507 33.8174 47.5497 33.8257 47.5945C33.834 47.6392 33.8332 47.6852 33.8232 47.7297C33.8132 47.7741 33.7944 47.8161 33.7677 47.853C32.4544 49.9117 30.8395 50.9587 29.0825 50.9587Z" fill="#F8F9FA"/>
<path d="M87.3286 93.6577H87.2754C87.1828 93.6404 87.1003 93.5887 87.0443 93.5129C86.9883 93.4372 86.9631 93.3431 86.9737 93.2495C87.0269 93.0011 90.7183 67.3033 85.1457 60.2222C85.1102 60.1867 82.3062 56.6018 80.8509 55.5548C79.8216 54.8094 79.8571 53.3541 80.4605 52.4313C81.0639 51.5084 81.969 51.2955 82.8741 51.8279C82.9151 51.8499 82.951 51.8801 82.9797 51.9167C83.0084 51.9532 83.0293 51.9953 83.041 52.0403C83.0526 52.0853 83.0549 52.1322 83.0475 52.1781C83.0402 52.224 83.0234 52.2679 82.9983 52.307C82.9504 52.3861 82.8735 52.4433 82.784 52.4665C82.6945 52.4897 82.5995 52.477 82.5192 52.4313C81.7205 51.9699 81.2236 52.5378 81.0462 52.804C80.6202 53.4784 80.6025 54.5077 81.2591 54.9691C82.8031 56.0872 85.5894 59.6366 85.6959 59.7786C91.4637 67.1081 87.8433 92.2912 87.6836 93.356C87.6707 93.4407 87.6277 93.5178 87.5625 93.5732C87.4973 93.6287 87.4142 93.6587 87.3286 93.6577Z" fill="#212529"/>
</svg>
